<?xml version="1.0" standalone="no"?><!DOCTYPE svg PUBLIC "-//W3C//DTD SVG 1.1//EN" "http://www.w3.org/Graphics/SVG/1.1/DTD/svg11.dtd"><svg t="1747466665164" class="icon" viewBox="0 0 1024 1024" version="1.1" xmlns="http://www.w3.org/2000/svg" p-id="8416" xmlns:xlink="http://www.w3.org/1999/xlink" width="200" height="200"><path d="M54.659024 1023.870992a39.407874 39.407874 0 0 1-28.381733-11.352693 38.698331 38.698331 0 0 1 0-55.658834l339.443906-339.439874a39.34337 39.34337 0 1 1 55.662866 55.59433l-339.443906 339.439874a39.730394 39.730394 0 0 1-27.281133 11.417197z" fill="#AAAAAA" p-id="8417"></path><path d="M512.258016 888.755402h-2.257638a36.38022 36.38022 0 0 1-30.63937-21.544315l-96.73978-221.413796-237.281763-46.563779a34.054047 34.054047 0 0 1-27.21663-24.963024 39.085354 39.085354 0 0 1 10.191622-36.311685l180.586834-160.078614-29.538771-239.539402a36.888189 36.888189 0 0 1 15.863937-34.050015 34.505575 34.505575 0 0 1 37.472756-1.161071l208.904063 122.541354 219.285165-102.162142a35.666646 35.666646 0 0 1 49.982488 39.730394l-51.079055 236.116662 164.658394 177.103622a33.344504 33.344504 0 0 1 6.837417 36.315716 35.989165 35.989165 0 0 1-29.538772 22.701354l-240.700472 22.701355-116.929512 212.322771a36.251213 36.251213 0 0 1-31.860913 18.254615z m-281.591937-345.120252l185.041638 36.311685a37.021228 37.021228 0 0 1 25.797543 20.443716l74.945512 172.588347 91.970519-164.589859a35.40863 35.40863 0 0 1 27.212599-18.19011l187.04126-18.186079-128.282205-137.377259a36.827717 36.827717 0 0 1-9.095055-31.79641l40.891464-183.941039-171.431307 79.460787a37.343748 37.343748 0 0 1-32.95748-1.161071L359.464315 200.454047l22.705386 187.037229a38.698331 38.698331 0 0 1-11.352693 30.635338l-140.150929 125.508536z" fill="#1A92E8" p-id="8418"></path><path d="M554.048504 124.60548a35.344126 35.344126 0 0 1-35.211087-35.215118V37.279244A35.344126 35.344126 0 0 1 554.048504 2.064126a34.630551 34.630551 0 0 1 35.215118 35.215118v52.240126a35.344126 35.344126 0 0 1-35.215118 35.08611z m289.52189 263.401827a35.275591 35.275591 0 0 1-35.211087-28.381732 36.763213 36.763213 0 0 1 28.377701-41.984l131.700913-25.801575a35.860157 35.860157 0 0 1 13.606299 70.369764l-131.700913 24.95496a14.448882 14.448882 0 0 1-6.837417 1.165103l0.064504-0.32252z m-25.797544 526.799622a35.666646 35.666646 0 0 1-29.538771-15.863937l-105.580851-157.820976a35.344126 35.344126 0 0 1 59.081575-38.698331l105.576819 156.663937a34.054047 34.054047 0 0 1-10.187591 48.821417 30.82885 30.82885 0 0 1-19.351181 6.833386v0.064504z" fill="#AAAAAA" p-id="8419"></path></svg>