<?xml version="1.0" standalone="no"?><!DOCTYPE svg PUBLIC "-//W3C//DTD SVG 1.1//EN" "http://www.w3.org/Graphics/SVG/1.1/DTD/svg11.dtd"><svg t="1747466459038" class="icon" viewBox="0 0 1024 1024" version="1.1" xmlns="http://www.w3.org/2000/svg" p-id="4619" xmlns:xlink="http://www.w3.org/1999/xlink" width="200" height="200"><path d="M112 928a47.936 47.936 0 0 1-47.936-47.936v-224a48 48 0 1 1 96 0v176.064h704v-176.064a48 48 0 1 1 96 0v224a47.936 47.936 0 0 1-47.936 47.936z m352-263.936v-416L327.744 364.48a48.32 48.32 0 0 1-31.232 11.584 47.296 47.296 0 0 1-36.352-16.896 47.808 47.808 0 0 1 5.312-67.648l215.424-184.128a48.32 48.32 0 0 1 62.336 0l215.232 184.128a48 48 0 0 1-62.336 72.96L559.872 248.064v416a48 48 0 0 1-96 0z" fill="#ffffff" p-id="4620"></path></svg>